<svg xmlns="http://www.w3.org/2000/svg" width="1800.22" height="261.031" viewBox="0 0 1800.22 261.031">
  <defs>
    <style>
      .cls-1 {
        fill-rule: evenodd;
      }
    </style>
  </defs>
  <path id="Artgram" class="cls-1" d="M135.667,261.248H229.9c-4.545-17.877-6.363-43.935-6.363-79.084V83.385c0-35.149,1.818-61.207,6.363-79.084H26.282L39.008,28.844C54.159,14.6,106.275,6.421,128.7,6.724,57.189,8.542,10.829,54.3,12.344,157.924c-1.212,65.146-5.151,90.6-12.423,103.324h90.9C88.7,234.281,87.186,185.5,87.186,155.5H142.03v26.664C142.03,217.313,140.212,243.371,135.667,261.248Zm5.151-250.584c1.818,14.847,1.212,50.3,1.212,72.721v64.54H87.489C87.792,41.57,104.154,11.27,140.818,10.664ZM245.325,4.3c4.545,17.877,6.363,43.936,6.363,79.084v98.779c0,35.149-1.818,61.207-6.363,79.084H339.56c-4.545-17.877-6.363-43.935-6.363-79.084V151.258H343.8c16.665-.606,38.481,79.69,40.9,109.99h101.81c-9.09-11.514-36.058-58.48-43.633-111.5l-43.632-.3c97.264,1.212,112.717-145.14-.3-145.14H245.325Zm99.992,2.121c61.813,0,77.569,140.292-12.12,143.019V6.421h12.12Zm224.4,254.827h94.234c-4.545-17.877-6.363-43.935-6.363-79.084V7.027c25.452,0,66.055,92.719,74.842,131.808L729.4,4.3H504.264l-3.03,134.535C510.021,99.747,550.623,7.027,576.076,7.027V182.164C576.076,217.313,574.258,243.371,569.713,261.248Zm360.9-130.595,0.3,107.567c0,10.3-1.212,17.271-10.3,18.18-62.722,4.242-90.3-53.632-90.3-136.958C830.313,85.2,843.342,10.967,889.7,4.3c60-8.484,57.571,104.84-23.937,111.506H1000a94.276,94.276,0,0,0,6.664-34.239c0-62.116-66.962-80.6-117.867-80.6-84.235,0-141.2,45.148-141.2,132.11,0,84.236,66.358,126.959,145.442,129.08,48.178,1.212,94.841-19.089,112.115-56.358V128.532H865.765l11.817,67.873C880.006,166.408,896.368,131.562,930.608,130.653ZM1021.64,4.3c4.55,17.877,6.37,43.936,6.37,79.084v98.779c0,35.149-1.82,61.207-6.37,79.084h94.24c-4.55-17.877-6.36-43.935-6.36-79.084V151.258h10.6c16.67-.606,38.48,79.69,40.91,109.99h101.81c-9.09-11.514-36.06-58.48-43.64-111.5l-43.63-.3c97.26,1.212,112.72-145.14-.3-145.14H1021.64Zm100,2.121c61.81,0,77.56,140.292-12.12,143.019V6.421h12.12ZM1413.3,261.248h94.23c-4.54-17.877-6.36-43.935-6.36-79.084V83.385c0-35.149,1.82-61.207,6.36-79.084H1303.91l12.73,24.543c15.15-14.241,67.27-22.422,89.69-22.119-71.51,1.818-117.87,47.572-116.35,151.2-1.22,65.146-5.16,90.6-12.43,103.324h90.9c-2.12-26.967-3.63-75.751-3.63-105.748h54.84v26.664C1419.66,217.313,1417.84,243.371,1413.3,261.248Zm5.15-250.584c1.82,14.847,1.21,50.3,1.21,72.721v64.54h-54.54C1365.42,41.57,1381.79,11.27,1418.45,10.664Zm218.74,250.585,68.18-177.257c2.72-7.272,5.15-13.029,6.96-17.574V182.164c0,35.149-1.81,61.207-6.36,79.084h94.24c-4.55-17.877-6.37-43.935-6.37-79.084V83.385c0-35.149,1.82-61.207,6.37-79.084H1684.16c23.93,9.09,29.08,50.9,15.45,86.962l-23.33,61.51-32.12-68.782c-16.36-35.149-23.94-61.813-27.57-79.69h-93.63c4.54,17.877,6.36,43.936,6.36,79.084v98.779c0,35.149-1.82,61.207-6.36,79.084h78.17c-48.18-3.939-69.08-57.874-69.08-113.02V53.69l104.23,207.558h0.91Z" transform="translate(0 -0.969)"/>
</svg>
