<?xml version="1.0" encoding="utf-8"?>
<!-- Generator: Adobe Illustrator 25.4.1, SVG Export Plug-In . SVG Version: 6.00 Build 0)  -->
<svg version="1.1" id="Слой_6" xmlns="http://www.w3.org/2000/svg" xmlns:xlink="http://www.w3.org/1999/xlink" x="0px" y="0px"
	 viewBox="0 0 778.7 134" style="enable-background:new 0 0 778.7 134;" xml:space="preserve">
<style type="text/css">
	.st0{fill-rule:evenodd;clip-rule:evenodd;fill:#FFCF48;}
	.st1{fill-rule:evenodd;clip-rule:evenodd;fill:#FFBC33;}
</style>
<g>
	<path class="st0" d="M106.3,131.7c-1.4,0-2.7-0.3-4-1l-30.6-16.1c-0.6-0.3-1.2-0.5-1.9-0.5s-1.3,0.2-1.9,0.5l-30.6,16.1
		c-1.3,0.7-2.6,1-4,1c-2.5,0-4.9-1.1-6.6-3.1c-1.6-1.9-2.3-4.4-1.9-6.9l5.8-34.1c0.2-1.3-0.2-2.7-1.2-3.6L4.7,59.8
		c-2.3-2.3-3.2-5.7-2.2-8.8c1-3.1,3.7-5.4,6.9-5.8l34.2-5c1.3-0.2,2.5-1,3.1-2.2L62,7c1.5-2.9,4.4-4.8,7.7-4.8C73,2.2,75.9,4,77.4,7
		l15.3,31c0.6,1.2,1.7,2,3.1,2.2l34.2,5c3.2,0.5,5.9,2.7,6.9,5.8c1,3.1,0.2,6.5-2.2,8.8l-24.8,24.1c-1,0.9-1.4,2.3-1.2,3.6l5.8,34.1
		c0.4,2.5-0.2,5-1.9,6.9C111.2,130.5,108.8,131.7,106.3,131.7z"/>
	<path d="M69.8,4.5c2.2,0,4.5,1.2,5.7,3.5l15.3,31c0.9,1.9,2.7,3.2,4.7,3.5l34.2,5c5.2,0.8,7.2,7.1,3.5,10.8l-24.8,24
		c-1.5,1.4-2.2,3.5-1.8,5.6l5.8,34.1c0.7,4.1-2.5,7.4-6.2,7.4c-1,0-2-0.2-2.9-0.7l-30.6-16.1c-0.9-0.5-1.9-0.7-2.9-0.7
		s-2,0.2-2.9,0.7l-30.6,16.1c-1,0.5-2,0.7-2.9,0.7c-3.7,0-6.9-3.3-6.2-7.4L33,87.9c0.4-2-0.3-4.1-1.8-5.6L6.3,58.2
		c-3.7-3.6-1.7-10,3.5-10.8l34.2-5c2.1-0.3,3.8-1.6,4.7-3.5L64,7.9C65.3,5.6,67.5,4.5,69.8,4.5 M69.8,0c-4.1,0-7.9,2.3-9.7,6
		L44.8,37c-0.3,0.5-0.8,0.9-1.4,1L9.2,43c-4.1,0.6-7.4,3.4-8.7,7.4c-1.3,3.9-0.2,8.2,2.7,11.1L28,85.6c0.4,0.4,0.6,1,0.5,1.6
		l-5.8,34.1c-0.5,3.2,0.3,6.3,2.4,8.8c2.1,2.5,5.1,3.9,8.3,3.9c1.8,0,3.4-0.4,5-1.3L69,116.6c0.3-0.1,0.5-0.2,0.8-0.2
		s0.6,0.1,0.8,0.2l30.6,16.1c1.6,0.8,3.3,1.3,5,1.3c3.2,0,6.2-1.4,8.3-3.9c2-2.4,2.9-5.6,2.4-8.8l-5.8-34.1
		c-0.1-0.6,0.1-1.2,0.5-1.6l24.8-24.1c3-2.9,4-7.1,2.7-11.1c-1.3-3.9-4.6-6.8-8.7-7.4l-34.2-5c-0.6-0.1-1.1-0.5-1.4-1L79.5,6
		C77.6,2.3,73.9,0,69.8,0L69.8,0z"/>
</g>
<g>
	<g>
		<path class="st1" d="M37.1,122l5.8-34.1c0.2-1,2.9-12.8,6.7-24.5s8.7-23.5,9.2-24.4L74.1,8c0.2-0.4,0.4-0.7,0.7-1
			c-2.7-3.6-8.5-3.3-10.7,1L48.8,39c-0.9,1.9-2.7,3.2-4.7,3.5l-34.2,5c-5.2,0.8-7.2,7.1-3.5,10.8l24.8,24.1c1.5,1.4,2.2,3.5,1.8,5.6
			l-5.8,34.1c-0.9,5.2,4.5,9.1,9.2,6.6l2.5-1.3C37.4,126,36.7,124.1,37.1,122z"/>
	</g>
</g>
<g>
	<path class="st0" d="M266.3,131.7c-1.4,0-2.7-0.3-4-1l-30.6-16.1c-0.6-0.3-1.2-0.5-1.9-0.5c-0.7,0-1.3,0.2-1.9,0.5l-30.6,16.1
		c-1.3,0.7-2.6,1-4,1c-2.5,0-4.9-1.1-6.6-3.1c-1.6-1.9-2.3-4.4-1.9-6.9l5.8-34.1c0.2-1.3-0.2-2.7-1.2-3.6l-24.7-24.2
		c-2.3-2.3-3.2-5.7-2.2-8.8c1-3.1,3.7-5.4,6.9-5.8l34.2-5c1.3-0.2,2.5-1,3.1-2.2L222,7c1.5-2.9,4.4-4.8,7.7-4.8s6.2,1.8,7.7,4.8
		l15.3,31c0.6,1.2,1.7,2,3.1,2.2l34.2,5c3.2,0.5,5.9,2.7,6.9,5.8c1,3.1,0.2,6.5-2.2,8.8l-24.8,24.1c-1,0.9-1.4,2.3-1.2,3.6l5.8,34.1
		c0.4,2.5-0.2,5-1.9,6.9C271.2,130.5,268.8,131.7,266.3,131.7z"/>
	<path d="M229.8,4.5c2.2,0,4.5,1.2,5.7,3.5l15.3,31c0.9,1.9,2.7,3.2,4.7,3.5l34.2,5c5.2,0.8,7.2,7.1,3.5,10.8l-24.8,24
		c-1.5,1.4-2.2,3.5-1.8,5.6l5.8,34.1c0.7,4.1-2.5,7.4-6.2,7.4c-1,0-2-0.2-2.9-0.7l-30.6-16.1c-0.9-0.5-1.9-0.7-2.9-0.7
		s-2,0.2-2.9,0.7l-30.6,16.1c-1,0.5-2,0.7-2.9,0.7c-3.7,0-6.9-3.3-6.2-7.4l5.8-34.1c0.4-2-0.3-4.1-1.8-5.6l-24.9-24.1
		c-3.7-3.6-1.7-10,3.5-10.8l34.2-5c2.1-0.3,3.8-1.6,4.7-3.5l15.3-31C225.3,5.6,227.5,4.5,229.8,4.5 M229.8,0c-4.1,0-7.9,2.3-9.7,6
		l-15.3,31c-0.3,0.5-0.8,0.9-1.4,1l-34.2,5c-4.1,0.6-7.4,3.4-8.7,7.4c-1.3,3.9-0.2,8.2,2.7,11.1L188,85.6c0.4,0.4,0.6,1,0.5,1.6
		l-5.8,34.1c-0.5,3.2,0.3,6.3,2.4,8.8c2.1,2.5,5.1,3.9,8.3,3.9c1.8,0,3.4-0.4,5-1.3l30.6-16.1c0.3-0.1,0.5-0.2,0.8-0.2
		s0.6,0.1,0.8,0.2l30.6,16.1c1.6,0.8,3.3,1.3,5,1.3c3.2,0,6.2-1.4,8.3-3.9c2-2.4,2.9-5.6,2.4-8.8l-5.8-34.1
		c-0.1-0.6,0.1-1.2,0.5-1.6l24.8-24.1c3-2.9,4-7.1,2.7-11.1c-1.3-3.9-4.6-6.8-8.7-7.4l-34.2-5c-0.6-0.1-1.1-0.5-1.4-1L239.5,6
		C237.6,2.3,233.9,0,229.8,0L229.8,0z"/>
</g>
<g>
	<g>
		<path class="st1" d="M197.1,122l5.8-34.1c0.2-1,2.9-12.8,6.7-24.5c3.8-11.7,8.7-23.5,9.2-24.4l15.3-31c0.2-0.4,0.4-0.7,0.7-1
			c-2.7-3.6-8.5-3.3-10.7,1l-15.3,31c-0.9,1.9-2.7,3.2-4.7,3.5l-34.2,5c-5.2,0.8-7.2,7.1-3.5,10.8l24.8,24.1
			c1.5,1.4,2.2,3.5,1.8,5.6l-5.8,34.1c-0.9,5.2,4.5,9.1,9.2,6.6l2.5-1.3C197.4,126,196.7,124.1,197.1,122z"/>
	</g>
</g>
<g>
	<path class="st0" d="M426.3,131.7c-1.4,0-2.7-0.3-4-1l-30.6-16.1c-0.6-0.3-1.2-0.5-1.9-0.5c-0.7,0-1.3,0.2-1.9,0.5l-30.6,16.1
		c-1.3,0.7-2.6,1-4,1c-2.5,0-4.9-1.1-6.6-3.1c-1.6-1.9-2.3-4.4-1.9-6.9l5.8-34.1c0.2-1.3-0.2-2.7-1.2-3.6l-24.7-24.2
		c-2.3-2.3-3.2-5.7-2.2-8.8c1-3.1,3.7-5.4,6.9-5.8l34.2-5c1.3-0.2,2.5-1,3.1-2.2L382,7c1.5-2.9,4.4-4.8,7.7-4.8s6.2,1.8,7.7,4.8
		l15.3,31c0.6,1.2,1.7,2,3.1,2.2l34.2,5c3.2,0.5,5.9,2.7,6.9,5.8c1,3.1,0.2,6.5-2.2,8.8l-24.8,24.1c-1,0.9-1.4,2.3-1.2,3.6l5.8,34.1
		c0.4,2.5-0.2,5-1.9,6.9C431.2,130.5,428.8,131.7,426.3,131.7z"/>
	<path d="M389.8,4.5c2.2,0,4.5,1.2,5.7,3.5l15.3,31c0.9,1.9,2.7,3.2,4.7,3.5l34.2,5c5.2,0.8,7.2,7.1,3.5,10.8l-24.8,24
		c-1.5,1.4-2.2,3.5-1.8,5.6l5.8,34.1c0.7,4.1-2.5,7.4-6.2,7.4c-1,0-2-0.2-2.9-0.7l-30.6-16.1c-0.9-0.5-1.9-0.7-2.9-0.7
		s-2,0.2-2.9,0.7l-30.6,16.1c-1,0.5-2,0.7-2.9,0.7c-3.7,0-6.9-3.3-6.2-7.4l5.8-34.1c0.4-2-0.3-4.1-1.8-5.6l-24.9-24.1
		c-3.7-3.6-1.7-10,3.5-10.8l34.2-5c2.1-0.3,3.8-1.6,4.7-3.5l15.3-31C385.3,5.6,387.5,4.5,389.8,4.5 M389.8,0c-4.1,0-7.9,2.3-9.7,6
		l-15.3,31c-0.3,0.5-0.8,0.9-1.4,1l-34.2,5c-4.1,0.6-7.4,3.4-8.7,7.4c-1.3,3.9-0.2,8.2,2.7,11.1L348,85.6c0.4,0.4,0.6,1,0.5,1.6
		l-5.8,34.1c-0.5,3.2,0.3,6.3,2.4,8.8s5.1,3.9,8.3,3.9c1.8,0,3.4-0.4,5-1.3l30.6-16.1c0.3-0.1,0.5-0.2,0.8-0.2
		c0.3,0,0.6,0.1,0.8,0.2l30.6,16.1c1.6,0.8,3.3,1.3,5,1.3c3.2,0,6.2-1.4,8.3-3.9c2-2.4,2.9-5.6,2.4-8.8l-5.8-34.1
		c-0.1-0.6,0.1-1.2,0.5-1.6l24.8-24.1c3-2.9,4-7.1,2.7-11.1c-1.3-3.9-4.6-6.8-8.7-7.4l-34.2-5c-0.6-0.1-1.1-0.5-1.4-1L399.5,6
		C397.6,2.3,393.9,0,389.8,0L389.8,0z"/>
</g>
<g>
	<g>
		<path class="st1" d="M357.1,122l5.8-34.1c0.2-1,2.9-12.8,6.7-24.5s8.7-23.5,9.2-24.4l15.3-31c0.2-0.4,0.4-0.7,0.7-1
			c-2.7-3.6-8.5-3.3-10.7,1l-15.3,31c-0.9,1.9-2.7,3.2-4.7,3.5l-34.2,5c-5.2,0.8-7.2,7.1-3.5,10.8l24.8,24.1
			c1.5,1.4,2.2,3.5,1.8,5.6l-5.8,34.1c-0.9,5.2,4.5,9.1,9.2,6.6l2.5-1.3C357.4,126,356.7,124.1,357.1,122z"/>
	</g>
</g>
<g>
	<path class="st0" d="M585.3,131.7c-1.4,0-2.7-0.3-4-1l-30.6-16.1c-0.6-0.3-1.2-0.5-1.9-0.5s-1.3,0.2-1.9,0.5l-30.6,16.1
		c-1.3,0.7-2.6,1-4,1c-2.5,0-4.9-1.1-6.6-3.1c-1.6-1.9-2.3-4.4-1.9-6.9l5.8-34.1c0.2-1.3-0.2-2.7-1.2-3.6l-24.7-24.2
		c-2.3-2.3-3.2-5.7-2.2-8.8c1-3.1,3.7-5.4,6.9-5.8l34.2-5c1.3-0.2,2.5-1,3.1-2.2L541,7c1.5-2.9,4.4-4.8,7.7-4.8
		c3.3,0,6.2,1.8,7.7,4.8l15.3,31c0.6,1.2,1.7,2,3.1,2.2l34.2,5c3.2,0.5,5.9,2.7,6.9,5.8c1,3.1,0.2,6.5-2.2,8.8l-24.8,24.1
		c-1,0.9-1.4,2.3-1.2,3.6l5.8,34.1c0.4,2.5-0.2,5-1.9,6.9C590.2,130.5,587.8,131.7,585.3,131.7z"/>
	<path d="M548.8,4.5c2.2,0,4.5,1.2,5.7,3.5l15.3,31c0.9,1.9,2.7,3.2,4.7,3.5l34.2,5c5.2,0.8,7.2,7.1,3.5,10.8l-24.8,24
		c-1.5,1.4-2.2,3.5-1.8,5.6l5.8,34.1c0.7,4.1-2.5,7.4-6.2,7.4c-1,0-2-0.2-2.9-0.7l-30.6-16.1c-0.9-0.5-1.9-0.7-2.9-0.7
		s-2,0.2-2.9,0.7l-30.6,16.1c-1,0.5-2,0.7-2.9,0.7c-3.7,0-6.9-3.3-6.2-7.4l5.8-34.1c0.4-2-0.3-4.1-1.8-5.6l-24.9-24.1
		c-3.7-3.6-1.7-10,3.5-10.8l34.2-5c2.1-0.3,3.8-1.6,4.7-3.5l15.3-31C544.3,5.6,546.5,4.5,548.8,4.5 M548.8,0c-4.1,0-7.9,2.3-9.7,6
		l-15.3,31c-0.3,0.5-0.8,0.9-1.4,1l-34.2,5c-4.1,0.6-7.4,3.4-8.7,7.4c-1.3,3.9-0.2,8.2,2.7,11.1L507,85.6c0.4,0.4,0.6,1,0.5,1.6
		l-5.8,34.1c-0.5,3.2,0.3,6.3,2.4,8.8s5.1,3.9,8.3,3.9c1.8,0,3.4-0.4,5-1.3l30.6-16.1c0.3-0.1,0.5-0.2,0.8-0.2s0.6,0.1,0.8,0.2
		l30.6,16.1c1.6,0.8,3.3,1.3,5,1.3c3.2,0,6.2-1.4,8.3-3.9c2-2.4,2.9-5.6,2.4-8.8l-5.8-34.1c-0.1-0.6,0.1-1.2,0.5-1.6l24.8-24.1
		c3-2.9,4-7.1,2.7-11.1c-1.3-3.9-4.6-6.8-8.7-7.4l-34.2-5c-0.6-0.1-1.1-0.5-1.4-1L558.5,6C556.6,2.3,552.9,0,548.8,0L548.8,0z"/>
</g>
<g>
	<g>
		<path class="st1" d="M516.1,122l5.8-34.1c0.2-1,2.9-12.8,6.7-24.5s8.7-23.5,9.2-24.4l15.3-31c0.2-0.4,0.4-0.7,0.7-1
			c-2.7-3.6-8.5-3.3-10.7,1l-15.3,31c-0.9,1.9-2.7,3.2-4.7,3.5l-34.2,5c-5.2,0.8-7.2,7.1-3.5,10.8l24.8,24.1
			c1.5,1.4,2.2,3.5,1.8,5.6l-5.8,34.1c-0.9,5.2,4.5,9.1,9.2,6.6l2.5-1.3C516.4,126,515.7,124.1,516.1,122z"/>
	</g>
</g>
<g>
	<path class="st0" d="M745.3,131.7c-1.4,0-2.7-0.3-4-1l-30.6-16.1c-0.6-0.3-1.2-0.5-1.9-0.5s-1.3,0.2-1.9,0.5l-30.6,16.1
		c-1.3,0.7-2.6,1-4,1c-2.5,0-4.9-1.1-6.6-3.1c-1.6-1.9-2.3-4.4-1.9-6.9l5.8-34.1c0.2-1.3-0.2-2.7-1.2-3.6l-24.7-24.2
		c-2.3-2.3-3.2-5.7-2.2-8.8c1-3.1,3.7-5.4,6.9-5.8l34.2-5c1.3-0.2,2.5-1,3.1-2.2L701,7c1.5-2.9,4.4-4.8,7.7-4.8
		c3.3,0,6.2,1.8,7.7,4.8l15.3,31c0.6,1.2,1.7,2,3.1,2.2l34.2,5c3.2,0.5,5.9,2.7,6.9,5.8c1,3.1,0.2,6.5-2.2,8.8l-24.8,24.1
		c-1,0.9-1.4,2.3-1.2,3.6l5.8,34.1c0.4,2.5-0.2,5-1.9,6.9C750.2,130.5,747.8,131.7,745.3,131.7z"/>
	<path d="M708.8,4.5c2.2,0,4.5,1.2,5.7,3.5l15.3,31c0.9,1.9,2.7,3.2,4.7,3.5l34.2,5c5.2,0.8,7.2,7.1,3.5,10.8l-24.8,24
		c-1.5,1.4-2.2,3.5-1.8,5.6l5.8,34.1c0.7,4.1-2.5,7.4-6.2,7.4c-1,0-2-0.2-2.9-0.7l-30.6-16.1c-0.9-0.5-1.9-0.7-2.9-0.7
		s-2,0.2-2.9,0.7l-30.6,16.1c-1,0.5-2,0.7-2.9,0.7c-3.7,0-6.9-3.3-6.2-7.4l5.8-34.1c0.4-2-0.3-4.1-1.8-5.6l-24.9-24.1
		c-3.7-3.6-1.7-10,3.5-10.8l34.2-5c2.1-0.3,3.8-1.6,4.7-3.5l15.3-31C704.3,5.6,706.5,4.5,708.8,4.5 M708.8,0c-4.1,0-7.9,2.3-9.7,6
		l-15.3,31c-0.3,0.5-0.8,0.9-1.4,1l-34.2,5c-4.1,0.6-7.4,3.4-8.7,7.4c-1.3,3.9-0.2,8.2,2.7,11.1L667,85.6c0.4,0.4,0.6,1,0.5,1.6
		l-5.8,34.1c-0.5,3.2,0.3,6.3,2.4,8.8c2.1,2.5,5.1,3.9,8.3,3.9c1.8,0,3.4-0.4,5-1.3l30.6-16.1c0.3-0.1,0.5-0.2,0.8-0.2
		s0.6,0.1,0.8,0.2l30.6,16.1c1.6,0.8,3.3,1.3,5,1.3c3.2,0,6.2-1.4,8.3-3.9c2-2.4,2.9-5.6,2.4-8.8l-5.8-34.1
		c-0.1-0.6,0.1-1.2,0.5-1.6l24.8-24.1c3-2.9,4-7.1,2.7-11.1c-1.3-3.9-4.6-6.8-8.7-7.4l-34.2-5c-0.6-0.1-1.1-0.5-1.4-1L718.5,6
		C716.6,2.3,712.9,0,708.8,0L708.8,0z"/>
</g>
<g>
	<g>
		<path class="st1" d="M676.1,122l5.8-34.1c0.2-1,2.9-12.8,6.7-24.5s8.7-23.5,9.2-24.4l15.3-31c0.2-0.4,0.4-0.7,0.7-1
			c-2.7-3.6-8.5-3.3-10.7,1l-15.3,31c-0.9,1.9-2.7,3.2-4.7,3.5l-34.2,5c-5.2,0.8-7.2,7.1-3.5,10.8l24.8,24.1
			c1.5,1.4,2.2,3.5,1.8,5.6l-5.8,34.1c-0.9,5.2,4.5,9.1,9.2,6.6l2.5-1.3C676.4,126,675.7,124.1,676.1,122z"/>
	</g>
</g>
</svg>
